<svg version="1.1" id="Layer_1" xmlns="http://www.w3.org/2000/svg" xmlns:xlink="http://www.w3.org/1999/xlink" x="0px" y="0px"
	 width="100%" viewBox="0 0 180 180" enable-background="new 0 0 180 180" xml:space="preserve">
	 <circle cx="93" cy="90" r="90" fill="#FDFDFD" />
<path fill="#0C0C0C" opacity="1.000000" stroke="none" 
	d="
M112.927811,85.690079 
	C106.834030,88.311638 102.049286,87.246841 98.400620,82.448265 
	C94.577179,77.419830 90.759712,72.386864 86.926765,67.338928 
	C80.392250,70.108269 80.606850,75.528641 80.768959,81.080765 
	C80.821831,82.891632 80.346817,86.097046 79.527435,86.300026 
	C76.891434,86.953049 73.966652,86.642662 71.193321,86.338402 
	C70.735123,86.288147 70.178833,84.402977 70.173828,83.363350 
	C70.106522,69.376060 70.162849,55.388214 70.110260,41.400799 
	C70.092628,36.711159 73.552689,38.406342 75.838974,38.238789 
	C78.216957,38.064510 81.040520,37.437832 80.888893,41.604340 
	C80.692078,47.012493 80.840820,52.433224 80.840820,59.258518 
	C86.551903,53.235001 91.778297,48.595028 95.910667,43.128105 
	C100.377625,37.218533 105.850922,37.875668 112.743904,39.751812 
	C106.544777,46.212574 100.345642,52.673336 93.918098,59.372150 
	C100.329155,67.843666 106.629631,76.169052 112.942459,84.970901 
	C112.954811,85.447365 112.927811,85.690079 112.927811,85.690079 
z"/>
<path fill="#0A0A0A" opacity="1.000000" stroke="none" 
	d="
M78.433090,109.031601 
	C78.478180,114.854286 78.263161,120.201523 78.633766,125.507858 
	C79.105156,132.257309 83.056458,135.787628 89.222664,135.591721 
	C95.366524,135.396530 98.921600,131.656235 99.058945,124.778183 
	C99.221878,116.618011 99.352936,108.443352 99.037392,100.292801 
	C98.855301,95.589363 101.746208,96.356506 104.528847,96.269859 
	C107.514038,96.176910 110.075653,95.946999 109.890633,100.445404 
	C109.562263,108.428932 109.965965,116.440376 109.731873,124.430428 
	C109.233475,141.442001 94.258713,150.612885 78.692726,143.551285 
	C72.728729,140.845673 68.886345,135.958893 68.528503,129.696823 
	C67.905792,118.799759 68.355293,107.841423 68.355293,96.598785 
	C71.545555,96.598785 74.631393,96.598785 78.433113,96.598785 
	C78.433113,100.658600 78.433113,104.598289 78.433090,109.031601 
z"/>
<path fill="#080808" opacity="1.000000" stroke="none" 
	d="
M49.497467,69.216682 
	C44.854317,67.770210 40.487583,66.679596 36.289394,65.131821 
	C29.710495,62.706348 26.829451,58.391529 26.997332,51.931568 
	C27.155945,45.828247 30.689919,40.736637 36.759087,38.869003 
	C46.015350,36.020611 54.364689,38.022758 62.156780,44.376961 
	C60.267075,47.094349 58.593906,49.500366 56.778027,52.111599 
	C53.905464,50.711750 51.375336,49.082897 48.605812,48.252018 
	C46.311626,47.563736 43.644814,47.361980 41.317791,47.824200 
	C39.938747,48.098122 38.068779,49.998154 37.942371,51.313370 
	C37.819141,52.595486 39.338886,54.748920 40.656345,55.317822 
	C44.138309,56.821388 47.926025,57.599644 51.547802,58.800072 
	C60.623093,61.808064 64.170044,66.812630 63.042767,74.857063 
	C62.052631,81.922798 56.249107,86.670563 47.725994,87.235878 
	C39.019421,87.813354 31.431522,85.310249 24.891336,78.840416 
	C26.973930,76.293945 28.827702,74.027267 30.809387,71.604179 
	C33.778553,73.309837 36.318993,75.282867 39.197510,76.274460 
	C41.930050,77.215767 45.057423,77.580437 47.931217,77.319176 
	C49.542137,77.172714 51.814316,75.492455 52.256645,74.037514 
	C52.621967,72.835884 50.737186,70.950165 49.497467,69.216682 
z"/>
<path fill="#0E0E0E" opacity="1.000000" stroke="none" 
	d="
M64.028854,141.792511 
	C62.948269,143.133713 61.886280,144.754318 60.789227,144.778412 
	C51.476833,144.982925 42.156742,144.809113 32.841957,144.948669 
	C29.873995,144.993134 29.205065,143.718170 29.221312,141.057755 
	C29.304626,127.415710 29.339062,113.772072 29.200512,100.130936 
	C29.168262,96.955811 30.401308,95.998871 33.329239,96.243103 
	C35.273106,96.405243 37.241451,96.273842 39.746635,96.273842 
	C39.746635,109.327545 39.746635,121.867592 39.746635,134.958557 
	C48.002708,134.958557 55.721336,134.958557 64.031189,134.958557 
	C64.031189,137.450974 64.031189,139.391403 64.028854,141.792511 
z"/>
<path fill="#0B0B0A" opacity="1.000000" stroke="none" 
	d="
M113.357819,85.667953 
	C112.927811,85.690079 112.954811,85.447365 112.950577,85.325333 
	C115.665413,81.885971 118.492218,78.650024 121.075630,75.230217 
	C124.141922,71.171188 126.998749,66.953918 130.329758,62.301453 
	C132.718109,58.971195 134.723038,56.144718 136.727966,53.318241 
	C138.996902,50.245823 141.293594,47.193439 143.529068,44.096863 
	C148.336411,37.437725 149.993454,36.846302 159.189087,39.075687 
	C158.170822,40.694607 157.341660,42.180309 156.356079,43.553783 
	C147.153992,56.377644 137.924866,69.182121 128.703949,81.992477 
	C124.895523,87.283424 120.346031,88.398140 113.357819,85.667953 
z"/>
<path fill="#0B0A0A" opacity="1.000000" stroke="none" 
	d="
M136.783524,111.385391 
	C139.050125,108.315758 141.342484,105.264748 143.577988,102.172638 
	C148.365662,95.550446 150.040176,94.955841 159.415039,97.206558 
	C153.866455,105.077370 148.501450,112.687782 142.844147,120.855606 
	C140.626038,124.161919 138.700226,126.910812 136.774414,129.659698 
	C134.347244,132.782120 131.844070,135.848907 129.508759,139.038589 
	C124.700470,145.606033 122.959999,146.245453 113.694176,143.935944 
	C119.238693,136.080688 124.602524,128.481430 130.351837,120.373428 
	C132.752731,117.038254 134.768127,114.211823 136.783524,111.385391 
z"/>
<path fill="#E65344" opacity="1.000000" stroke="none" 
	d="
M136.510880,111.177414 
	C134.768127,114.211823 132.752731,117.038254 130.447113,120.048439 
	C124.721405,112.793518 119.285919,105.354851 113.820068,97.874634 
	C119.482246,94.602066 124.933464,95.646706 128.279572,100.218048 
	C130.913162,103.815964 133.583969,107.386658 136.510880,111.177414 
z"/>
<path fill="#E65243" opacity="1.000000" stroke="none" 
	d="
M136.470032,53.102306 
	C134.723038,56.144718 132.718109,58.971195 130.424515,61.974251 
	C124.659477,54.626503 119.183083,47.102177 113.552826,39.366455 
	C121.775673,36.631199 124.907181,37.573700 129.104340,43.360470 
	C131.430222,46.567234 133.840103,49.713070 136.470032,53.102306 
z"/>
<path fill="#E25042" opacity="1.000000" stroke="none" 
	d="
M136.957581,129.977264 
	C138.700226,126.910812 140.626038,124.161919 142.805450,121.195160 
	C148.478394,128.444656 153.897751,135.912033 159.383682,143.471146 
	C152.799561,146.532150 148.089874,145.414169 144.442093,140.361420 
	C142.015732,137.000534 139.575027,133.650009 136.957581,129.977264 
z"/>
</svg>