<svg width="120" height="22" viewBox="0 0 120 22" fill="none" xmlns="http://www.w3.org/2000/svg">
<g clip-path="url(#clip0_2460_205459)">
<path d="M100.144 1.1604C100.022 0.992045 100.004 0.76958 100.101 0.589203C100.198 0.402813 100.386 0.288574 100.598 0.288574H104.721C104.903 0.288574 105.073 0.378763 105.176 0.523065L119.896 20.8035C120.017 20.9718 120.036 21.1943 119.939 21.3747C119.842 21.5611 119.654 21.6753 119.441 21.6753H115.319C115.137 21.6753 114.967 21.5851 114.864 21.4408L100.144 1.1604Z" fill="url(#paint0_linear_2460_205459)"/>
<path d="M50.8478 8.92263L44.7305 0.523065C44.6274 0.37275 44.4576 0.288574 44.2758 0.288574H40.1531C39.947 0.288574 39.753 0.402813 39.656 0.589203C39.5589 0.775593 39.5771 0.992045 39.6984 1.1604L47.4405 11.7906C48.5924 10.8467 49.7019 9.87261 50.8478 8.92263Z" fill="url(#paint1_linear_2460_205459)"/>
<path d="M110.24 15.0978C111.234 14.3702 112.204 13.6066 113.144 12.807C113.332 12.6446 113.52 12.4823 113.708 12.3199L112.586 10.7867C112.483 10.6364 112.313 10.5522 112.131 10.5522H108.009C107.802 10.5522 107.608 10.6665 107.511 10.8529C107.414 11.0393 107.433 11.2557 107.554 11.4241L110.234 15.1038L110.24 15.0978Z" fill="url(#paint2_linear_2460_205459)"/>
<path d="M15.0614 11.0451C14.4672 10.534 13.7215 10.0951 12.8363 9.74638C11.9876 9.40967 11.0054 9.10303 9.90198 8.82646C8.94406 8.59798 8.14378 8.38153 7.53144 8.17109C6.94942 7.97868 6.49471 7.76824 6.17945 7.54578C5.90056 7.35338 5.71262 7.15496 5.61561 6.95053C5.51255 6.73408 5.46405 6.46351 5.46405 6.13884C5.46405 5.63378 5.6823 5.20689 6.13701 4.84012C6.61597 4.4493 7.32531 4.2569 8.24078 4.2569C9.1017 4.2569 9.96867 4.42525 10.8114 4.75594C11.6784 5.09265 12.5696 5.59169 13.4608 6.24105C13.5821 6.32523 13.7336 6.3613 13.8791 6.33725C14.0246 6.3132 14.158 6.23504 14.2429 6.11479L16.1709 3.42115C16.3406 3.18065 16.2921 2.84996 16.0617 2.66958C14.9644 1.80377 13.7821 1.13638 12.5332 0.685433C11.2782 0.228478 9.85348 0 8.29535 0C7.22831 0 6.22795 0.150314 5.31854 0.450943C4.397 0.751572 3.59672 1.19049 2.93588 1.76168C2.26898 2.33288 1.74152 3.01831 1.36563 3.81197C0.983673 4.60563 0.789665 5.5015 0.789665 6.46953C0.789665 7.49166 0.959422 8.38153 1.29287 9.10303C1.63239 9.83657 2.12347 10.4679 2.76612 10.985C3.39058 11.484 4.16055 11.9049 5.0639 12.2356C5.93088 12.5543 6.93729 12.8429 8.04071 13.0954C8.97438 13.3239 9.73828 13.5403 10.3142 13.7447C10.8599 13.9371 11.2903 14.1476 11.5874 14.358C11.8421 14.5384 12.0179 14.7308 12.1028 14.9232C12.1998 15.1397 12.2483 15.3982 12.2483 15.6868C12.2483 16.3061 12.0118 16.757 11.5025 17.1238C10.9508 17.5146 10.1687 17.719 9.18051 17.719C7.98009 17.719 6.89485 17.5086 5.96119 17.0877C5.00328 16.6608 4.03324 16.0295 3.08745 15.2178C2.97226 15.1216 2.83281 15.0735 2.68124 15.0855C2.53574 15.0976 2.39629 15.1697 2.29929 15.2779L0.134888 17.8153C-0.0591202 18.0437 -0.0348692 18.3804 0.189453 18.5788C1.46263 19.7212 2.86919 20.581 4.37275 21.1342C5.87025 21.6873 7.45869 21.9639 9.09563 21.9639C10.2172 21.9639 11.2661 21.8196 12.2058 21.537C13.1637 21.2484 14.0065 20.8155 14.6976 20.2443C15.3948 19.6731 15.9465 18.9637 16.3406 18.1399C16.7347 17.3162 16.9287 16.3662 16.9287 15.326C16.9287 14.4001 16.7711 13.5824 16.4558 12.8849C16.1405 12.1875 15.6737 11.5682 15.0674 11.0451H15.0614Z" fill="white"/>
<path d="M30.5397 9.60806L38.4698 1.47305C38.4698 1.47305 38.6214 1.27464 38.6941 1.19647C38.779 1.1123 38.8093 0.607241 38.5183 0.330662C38.4516 0.306612 38.3849 0.288574 38.3122 0.288574H33.8985C33.7469 0.288574 33.6014 0.3487 33.4923 0.462939L24.7195 9.65616V0.841731C24.7195 0.53509 24.4709 0.288574 24.1617 0.288574H20.5968C20.2876 0.288574 20.0391 0.53509 20.0391 0.841731V21.1281C20.0391 21.4348 20.2876 21.6813 20.5968 21.6813H24.1617C24.4709 21.6813 24.7195 21.4348 24.7195 21.1281V15.4703L27.2962 12.8428L33.8864 21.4588C33.9894 21.5971 34.1531 21.6753 34.329 21.6753H38.682C38.9912 21.6753 39.2398 21.4288 39.2398 21.1221C39.2398 20.9718 39.1792 20.8335 39.0822 20.7373L30.5276 9.60205L30.5397 9.60806Z" fill="white"/>
<path d="M77.1358 17.3583H66.9383V0.841731C66.9383 0.53509 66.6897 0.288574 66.3805 0.288574H62.8156C62.5064 0.288574 62.2578 0.53509 62.2578 0.841731V21.1281C62.2578 21.4348 62.5064 21.6813 62.8156 21.6813H77.1358C77.445 21.6813 77.6936 21.4348 77.6936 21.1281V17.9114C77.6936 17.6048 77.445 17.3583 77.1358 17.3583Z" fill="white"/>
<path d="M97.5023 0.288574H93.9374C93.6282 0.288574 93.3797 0.53509 93.3797 0.841731V12.5181C93.3797 14.2377 92.9674 15.5304 92.155 16.3662C91.3365 17.208 90.227 17.6168 88.7659 17.6168C87.3048 17.6168 86.1711 17.1899 85.3526 16.3181C84.5341 15.4403 84.1218 14.1175 84.1218 12.3738V0.841731C84.1218 0.53509 83.8733 0.288574 83.5641 0.288574H79.9992C79.69 0.288574 79.4414 0.53509 79.4414 0.841731V12.5181C79.4414 14.0453 79.6597 15.4102 80.0901 16.5766C80.5266 17.7611 81.1572 18.7652 81.9756 19.5769C82.7941 20.3826 83.7884 21.0019 84.9282 21.4047C86.0559 21.8016 87.323 22 88.7114 22C90.0997 22 91.3971 21.8016 92.5309 21.4047C93.6889 21.0019 94.6892 20.3826 95.5016 19.5649C96.314 18.7472 96.9506 17.719 97.3993 16.5105C97.8358 15.314 98.0601 13.9131 98.0601 12.3498V0.841731C98.0601 0.53509 97.8115 0.288574 97.5023 0.288574Z" fill="white"/>
<path d="M119.896 1.1604C120.017 0.992045 120.036 0.76958 119.939 0.589203C119.842 0.402813 119.654 0.288574 119.441 0.288574H115.319C115.137 0.288574 114.967 0.378763 114.864 0.523065L100.144 20.8035C100.022 20.9718 100.004 21.1943 100.101 21.3747C100.198 21.5611 100.386 21.6753 100.598 21.6753H104.721C104.903 21.6753 105.073 21.5851 105.176 21.4408L119.896 1.1604Z" fill="white"/>
<path d="M59.453 1.1604C59.5742 0.992045 59.5924 0.76958 59.4954 0.589203C59.3984 0.402813 59.2105 0.288574 58.9983 0.288574H54.8756C54.6937 0.288574 54.524 0.378763 54.4209 0.523065L39.6945 20.8035C39.5732 20.9718 39.555 21.1943 39.652 21.3747C39.7491 21.555 39.937 21.6753 40.1492 21.6753H44.2719C44.4537 21.6753 44.6235 21.5851 44.7266 21.4408L59.453 1.1604Z" fill="white"/>
<g clip-path="url(#clip1_2460_205459)">
<path d="M100.144 1.1604C100.022 0.992045 100.004 0.76958 100.101 0.589203C100.198 0.402813 100.386 0.288574 100.598 0.288574H104.721C104.903 0.288574 105.073 0.378763 105.176 0.523065L119.896 20.8035C120.017 20.9718 120.036 21.1943 119.939 21.3747C119.842 21.5611 119.654 21.6753 119.441 21.6753H115.319C115.137 21.6753 114.967 21.5851 114.864 21.4408L100.144 1.1604Z" fill="url(#paint3_linear_2460_205459)"/>
<path d="M50.8478 8.92263L44.7305 0.523065C44.6274 0.37275 44.4576 0.288574 44.2758 0.288574H40.1531C39.947 0.288574 39.753 0.402813 39.656 0.589203C39.5589 0.775593 39.5771 0.992045 39.6984 1.1604L47.4405 11.7906C48.5924 10.8467 49.7019 9.87261 50.8478 8.92263Z" fill="url(#paint4_linear_2460_205459)"/>
<path d="M15.0614 11.0451C14.4672 10.534 13.7215 10.0951 12.8363 9.74638C11.9876 9.40967 11.0054 9.10303 9.90198 8.82646C8.94406 8.59798 8.14378 8.38153 7.53144 8.17109C6.94942 7.97868 6.49471 7.76824 6.17945 7.54578C5.90056 7.35338 5.71262 7.15496 5.61561 6.95053C5.51255 6.73408 5.46405 6.46351 5.46405 6.13884C5.46405 5.63378 5.6823 5.20689 6.13701 4.84012C6.61597 4.4493 7.32531 4.2569 8.24078 4.2569C9.1017 4.2569 9.96867 4.42525 10.8114 4.75594C11.6784 5.09265 12.5696 5.59169 13.4608 6.24105C13.5821 6.32523 13.7336 6.3613 13.8791 6.33725C14.0246 6.3132 14.158 6.23504 14.2429 6.11479L16.1709 3.42115C16.3406 3.18065 16.2921 2.84996 16.0617 2.66958C14.9644 1.80377 13.7821 1.13638 12.5332 0.685433C11.2782 0.228478 9.85348 0 8.29535 0C7.22831 0 6.22795 0.150314 5.31854 0.450943C4.397 0.751572 3.59672 1.19049 2.93588 1.76168C2.26898 2.33288 1.74152 3.01831 1.36563 3.81197C0.983673 4.60563 0.789665 5.5015 0.789665 6.46953C0.789665 7.49166 0.959422 8.38153 1.29287 9.10303C1.63239 9.83657 2.12347 10.4679 2.76612 10.985C3.39058 11.484 4.16055 11.9049 5.0639 12.2356C5.93088 12.5543 6.93729 12.8429 8.04071 13.0954C8.97438 13.3239 9.73828 13.5403 10.3142 13.7447C10.8599 13.9371 11.2903 14.1476 11.5874 14.358C11.8421 14.5384 12.0179 14.7308 12.1028 14.9232C12.1998 15.1397 12.2483 15.3982 12.2483 15.6868C12.2483 16.3061 12.0118 16.757 11.5025 17.1238C10.9508 17.5146 10.1687 17.719 9.18051 17.719C7.98009 17.719 6.89485 17.5086 5.96119 17.0877C5.00328 16.6608 4.03324 16.0295 3.08745 15.2178C2.97226 15.1216 2.83281 15.0735 2.68124 15.0855C2.53574 15.0976 2.39629 15.1697 2.29929 15.2779L0.134888 17.8153C-0.0591202 18.0437 -0.0348692 18.3804 0.189453 18.5788C1.46263 19.7212 2.86919 20.581 4.37275 21.1342C5.87025 21.6873 7.45869 21.9639 9.09563 21.9639C10.2172 21.9639 11.2661 21.8196 12.2058 21.537C13.1637 21.2484 14.0065 20.8155 14.6976 20.2443C15.3948 19.6731 15.9465 18.9637 16.3406 18.1399C16.7347 17.3162 16.9287 16.3662 16.9287 15.326C16.9287 14.4001 16.7711 13.5824 16.4558 12.8849C16.1405 12.1875 15.6737 11.5682 15.0674 11.0451H15.0614Z" fill="#373232"/>
<path d="M30.5397 9.60806L38.4698 1.47305C38.4698 1.47305 38.6214 1.27464 38.6941 1.19647C38.779 1.1123 38.8093 0.607241 38.5183 0.330662C38.4516 0.306612 38.3849 0.288574 38.3122 0.288574H33.8985C33.7469 0.288574 33.6014 0.3487 33.4923 0.462939L24.7195 9.65616V0.841731C24.7195 0.53509 24.4709 0.288574 24.1617 0.288574H20.5968C20.2876 0.288574 20.0391 0.53509 20.0391 0.841731V21.1281C20.0391 21.4348 20.2876 21.6813 20.5968 21.6813H24.1617C24.4709 21.6813 24.7195 21.4348 24.7195 21.1281V15.4703L27.2962 12.8428L33.8864 21.4588C33.9894 21.5971 34.1531 21.6753 34.329 21.6753H38.682C38.9912 21.6753 39.2398 21.4288 39.2398 21.1221C39.2398 20.9718 39.1792 20.8335 39.0822 20.7373L30.5276 9.60205L30.5397 9.60806Z" fill="#373232"/>
<path d="M77.1358 17.3583H66.9383V0.841731C66.9383 0.53509 66.6897 0.288574 66.3805 0.288574H62.8156C62.5064 0.288574 62.2578 0.53509 62.2578 0.841731V21.1281C62.2578 21.4348 62.5064 21.6813 62.8156 21.6813H77.1358C77.445 21.6813 77.6936 21.4348 77.6936 21.1281V17.9114C77.6936 17.6048 77.445 17.3583 77.1358 17.3583Z" fill="#373232"/>
<path d="M97.5023 0.288574H93.9374C93.6282 0.288574 93.3797 0.53509 93.3797 0.841731V12.5181C93.3797 14.2377 92.9674 15.5304 92.155 16.3662C91.3365 17.208 90.227 17.6168 88.7659 17.6168C87.3048 17.6168 86.1711 17.1899 85.3526 16.3181C84.5341 15.4403 84.1218 14.1175 84.1218 12.3738V0.841731C84.1218 0.53509 83.8733 0.288574 83.5641 0.288574H79.9992C79.69 0.288574 79.4414 0.53509 79.4414 0.841731V12.5181C79.4414 14.0453 79.6597 15.4102 80.0901 16.5766C80.5266 17.7611 81.1572 18.7652 81.9756 19.5769C82.7941 20.3826 83.7884 21.0019 84.9282 21.4047C86.0559 21.8016 87.323 22 88.7114 22C90.0997 22 91.3971 21.8016 92.5309 21.4047C93.6889 21.0019 94.6892 20.3826 95.5016 19.5649C96.314 18.7472 96.9506 17.719 97.3993 16.5105C97.8358 15.314 98.0601 13.9131 98.0601 12.3498V0.841731C98.0601 0.53509 97.8115 0.288574 97.5023 0.288574Z" fill="#373232"/>
<path d="M119.896 1.1604C120.017 0.992045 120.036 0.76958 119.939 0.589203C119.842 0.402813 119.654 0.288574 119.441 0.288574H115.319C115.137 0.288574 114.967 0.378763 114.864 0.523065L100.144 20.8035C100.022 20.9718 100.004 21.1943 100.101 21.3747C100.198 21.5611 100.386 21.6753 100.598 21.6753H104.721C104.903 21.6753 105.073 21.5851 105.176 21.4408L119.896 1.1604Z" fill="#373232"/>
<path d="M59.453 1.1604C59.5742 0.992045 59.5924 0.76958 59.4954 0.589203C59.3984 0.402813 59.2105 0.288574 58.9983 0.288574H54.8756C54.6937 0.288574 54.524 0.378763 54.4209 0.523065L39.6945 20.8035C39.5732 20.9718 39.555 21.1943 39.652 21.3747C39.7491 21.555 39.937 21.6753 40.1492 21.6753H44.2719C44.4537 21.6753 44.6235 21.5851 44.7266 21.4408L59.453 1.1604Z" fill="#373232"/>
</g>
</g>
<defs>
<linearGradient id="paint0_linear_2460_205459" x1="100.041" y1="10.9849" x2="119.999" y2="10.9849" gradientUnits="userSpaceOnUse">
<stop stop-color="#D74C32"/>
<stop offset="1" stop-color="#E9634B"/>
</linearGradient>
<linearGradient id="paint1_linear_2460_205459" x1="39.5953" y1="6.04261" x2="53.1577" y2="6.04261" gradientUnits="userSpaceOnUse">
<stop stop-color="#D74C32"/>
<stop offset="1" stop-color="#E9634B"/>
</linearGradient>
<linearGradient id="paint2_linear_2460_205459" x1="116.248" y1="23.2929" x2="109.668" y2="9.68544" gradientUnits="userSpaceOnUse">
<stop stop-color="#D74841"/>
<stop offset="1" stop-color="#B0382B"/>
</linearGradient>
<linearGradient id="paint3_linear_2460_205459" x1="100.041" y1="10.9849" x2="119.999" y2="10.9849" gradientUnits="userSpaceOnUse">
<stop stop-color="#D74C32"/>
<stop offset="1" stop-color="#E9634B"/>
</linearGradient>
<linearGradient id="paint4_linear_2460_205459" x1="39.5953" y1="6.04261" x2="53.1577" y2="6.04261" gradientUnits="userSpaceOnUse">
<stop stop-color="#D74C32"/>
<stop offset="1" stop-color="#E9634B"/>
</linearGradient>
<clipPath id="clip0_2460_205459">
<rect width="120" height="22" fill="white"/>
</clipPath>
<clipPath id="clip1_2460_205459">
<rect width="120" height="22" fill="white"/>
</clipPath>
</defs>
</svg>
