<svg width="32" height="32" viewBox="0 0 32 32" fill="none" xmlns="http://www.w3.org/2000/svg">
    <rect width="32" height="32" rx="6.5" fill="#1077E3"/>
    <path d="M19.2739 10.4354H21.5115V20.7946H19.2739V19.3029C18.4313 20.4769 17.2228 21.0639 15.6482 21.0639C14.2255 21.0639 13.01 20.5391 12.0017 19.4893C10.9934 18.4258 10.4893 17.1343 10.4893 15.615C10.4893 14.0818 10.9934 12.7904 12.0017 11.7406C13.01 10.6909 14.2255 10.166 15.6482 10.166C17.2228 10.166 18.4313 10.7461 19.2739 11.9064V10.4354ZM13.6592 17.9976C14.2807 18.6191 15.0611 18.9299 16.0004 18.9299C16.9396 18.9299 17.72 18.6191 18.3416 17.9976C18.9631 17.3622 19.2739 16.568 19.2739 15.615C19.2739 14.6619 18.9631 13.8746 18.3416 13.2531C17.72 12.6177 16.9396 12.3 16.0004 12.3C15.0611 12.3 14.2807 12.6177 13.6592 13.2531C13.0376 13.8746 12.7269 14.6619 12.7269 15.615C12.7269 16.568 13.0376 17.3622 13.6592 17.9976Z" fill="white"/>
    <path d="M25.2753 4.69036L25.0651 4.51338C25.0568 4.41662 24.9599 4.42488 24.9599 4.42488C24.8631 4.43315 24.6776 4.54643 24.6858 4.64319C24.6941 4.73994 24.6941 4.73994 24.7023 4.8367L24.1211 4.88628L23.9026 4.61254C23.8944 4.51578 23.7975 4.52404 23.7975 4.52404C23.7006 4.53231 23.5151 4.64559 23.5234 4.74234C23.5317 4.8391 23.5317 4.8391 23.5399 4.93586L22.7649 5.00196C21.9961 3.99549 21.2437 3.18254 20.9613 3.30408C20.6872 3.52238 21.2541 4.44862 21.9344 5.56011L21.5964 6.17369C21.5882 6.07694 21.4913 6.0852 21.4913 6.0852C21.3944 6.09346 21.2089 6.20675 21.2172 6.3035C21.2254 6.40026 21.2254 6.40026 21.2337 6.49701L21.4522 6.77075L21.2111 7.37608C21.2028 7.27932 21.106 7.28758 21.106 7.28758C21.0091 7.29585 20.8236 7.40913 20.8319 7.50588C20.8401 7.60264 20.8401 7.60264 20.8484 7.69939L21.0669 7.97313L20.5517 8.79676L20.7784 9.16725L22.2046 7.58371L22.93 6.93707C23.1568 7.30757 23.4721 7.57304 23.6906 7.84678C23.7958 7.93528 23.9091 8.12052 24.0143 8.20902L23.6042 9.12113L23.7176 9.30638L24.5316 8.55472C24.6368 8.64321 24.7336 8.63495 24.7336 8.63495C24.7336 8.63495 24.7254 8.53819 24.7171 8.44144L25.6528 7.97179L25.5394 7.78654L24.5707 7.86917C24.4656 7.78068 24.4491 7.58717 24.344 7.49867C24.1255 7.22493 23.9956 6.84617 23.7688 6.47568L24.5025 5.9258L26.479 5.07498L26.2523 4.70448L25.2753 4.69036Z" fill="white"/>
    <path d="M24.7874 10.9879C25.1918 11.7165 25.5248 12.5689 25.7341 13.3498C27.1988 18.8162 24.7449 24.4956 18.9857 26.0388C13.2264 27.582 7.20693 23.8592 5.58527 17.807C4.22517 12.7311 6.2956 7.57287 10.3482 5.12687C5.51468 7.78212 2.96318 13.4877 4.45406 19.0518C6.23266 25.6896 12.9163 29.5483 19.4565 27.7959C25.9967 26.0435 29.9269 19.2361 28.1745 12.6959C27.8344 11.4269 27.423 10.2817 26.8686 9.38399L24.7874 10.9879Z" fill="white"/>
</svg>
