<svg width="144" height="28" viewBox="0 0 144 28" fill="none" xmlns="http://www.w3.org/2000/svg">
  <g clip-path="url(#clip0_3560_163584)">
    <path d="M0 12.9081C0 8.69612 0 6.59013 0.819706 4.98137C1.54074 3.56626 2.69126 2.41574 4.10637 1.69471C5.71513 0.875 7.82112 0.875 12.0331 0.875H14.2893C18.5013 0.875 20.6073 0.875 22.2161 1.69471C23.6312 2.41574 24.7817 3.56626 25.5027 4.98137C26.3224 6.59013 26.3224 8.69612 26.3224 12.9081V15.1643C26.3224 19.3763 26.3224 21.4823 25.5027 23.0911C24.7817 24.5062 23.6312 25.6567 22.2161 26.3777C20.6073 27.1974 18.5013 27.1974 14.2893 27.1974H12.0331C7.82112 27.1974 5.71513 27.1974 4.10637 26.3777C2.69126 25.6567 1.54074 24.5062 0.819706 23.0911C0 21.4823 0 19.3763 0 15.1643V12.9081Z" fill="#212121" />
    <path d="M23.679 27.1981L19.7751 10.7578H3.3533V27.1981" fill="#5B2CE0" />
    <path d="M4.95438 27.1914C8.75482 25.8087 21.4476 17.4204 19.725 10.4876C19.725 10.4876 18.6705 3.68385 -2.63485 6.39679V27.1919H4.95487L4.95438 27.1914Z" fill="#E4F967" />
  </g>
  <path d="M41.5171 21.0391H36.3609V6.49361H41.5597C43.0228 6.49361 44.2823 6.7848 45.3382 7.36719C46.394 7.94484 47.2061 8.7758 47.7742 9.86009C48.3472 10.9444 48.6336 12.2417 48.6336 13.7521C48.6336 15.2673 48.3472 16.5694 47.7742 17.6584C47.2061 18.7474 46.3893 19.5831 45.324 20.1655C44.2633 20.7479 42.9944 21.0391 41.5171 21.0391ZM39.4362 18.4041H41.3893C42.2984 18.4041 43.0631 18.2431 43.6833 17.9212C44.3083 17.5945 44.7771 17.0902 45.0896 16.4084C45.4068 15.7218 45.5654 14.8364 45.5654 13.7521C45.5654 12.6773 45.4068 11.799 45.0896 11.1172C44.7771 10.4354 44.3107 9.93348 43.6904 9.61151C43.0702 9.28954 42.3055 9.12855 41.3964 9.12855H39.4362V18.4041ZM50.4548 21.0391V10.13H53.3881V12.0334H53.5017C53.7006 11.3563 54.0344 10.8449 54.5031 10.4993C54.9719 10.1489 55.5117 9.97372 56.1225 9.97372C56.274 9.97372 56.4373 9.98319 56.6125 10.0021C56.7877 10.0211 56.9416 10.0471 57.0742 10.0803V12.7649C56.9321 12.7223 56.7356 12.6844 56.4847 12.6513C56.2337 12.6181 56.0041 12.6016 55.7958 12.6016C55.3507 12.6016 54.953 12.6986 54.6026 12.8928C54.2569 13.0821 53.9823 13.3473 53.7787 13.6882C53.5798 14.0291 53.4804 14.4221 53.4804 14.8672V21.0391H50.4548ZM62.7022 21.2521C61.5801 21.2521 60.6142 21.0249 59.8045 20.5703C58.9996 20.111 58.3793 19.4624 57.9437 18.6243C57.5081 17.7815 57.2903 16.7848 57.2903 15.6342C57.2903 14.5121 57.5081 13.5272 57.9437 12.6797C58.3793 11.8321 58.9925 11.1716 59.7832 10.6982C60.5786 10.2247 61.5114 9.98793 62.5815 9.98793C63.3012 9.98793 63.9712 10.1039 64.5914 10.3359C65.2164 10.5632 65.7609 10.9065 66.2249 11.3658C66.6937 11.825 67.0583 12.4027 67.3187 13.0987C67.5791 13.79 67.7093 14.5997 67.7093 15.5277V16.3587H58.4977V14.4837H64.8613C64.8613 14.0481 64.7666 13.6622 64.5772 13.326C64.3878 12.9898 64.125 12.727 63.7889 12.5376C63.4574 12.3435 63.0715 12.2464 62.6312 12.2464C62.1719 12.2464 61.7647 12.353 61.4096 12.5661C61.0592 12.7744 60.7846 13.0561 60.5857 13.4112C60.3869 13.7616 60.2851 14.1522 60.2803 14.5831V16.3658C60.2803 16.9055 60.3798 17.3719 60.5786 17.7649C60.7822 18.1579 61.0687 18.4609 61.438 18.674C61.8073 18.8871 62.2453 18.9936 62.7519 18.9936C63.0881 18.9936 63.3959 18.9463 63.6752 18.8516C63.9546 18.7569 64.1937 18.6148 64.3926 18.4254C64.5914 18.236 64.7429 18.004 64.8471 17.7294L67.6454 17.9141C67.5034 18.5864 67.2122 19.1735 66.7718 19.6754C66.3362 20.1726 65.7728 20.5608 65.0815 20.8402C64.3949 21.1148 63.6018 21.2521 62.7022 21.2521ZM72.3945 21.245C71.6985 21.245 71.0783 21.1243 70.5338 20.8828C69.9892 20.6366 69.5584 20.2744 69.2411 19.7962C68.9286 19.3132 68.7724 18.7119 68.7724 17.9922C68.7724 17.3861 68.8837 16.8771 69.1062 16.4652C69.3287 16.0533 69.6318 15.7218 70.0153 15.4709C70.3988 15.2199 70.8344 15.0305 71.3221 14.9027C71.8145 14.7749 72.3306 14.6849 72.8704 14.6328C73.5049 14.5665 74.0162 14.505 74.4045 14.4482C74.7927 14.3866 75.0745 14.2966 75.2497 14.1783C75.4249 14.0599 75.5124 13.8847 75.5124 13.6527V13.6101C75.5124 13.1603 75.3704 12.8123 75.0863 12.5661C74.807 12.3198 74.4092 12.1967 73.8931 12.1967C73.3486 12.1967 72.9154 12.3175 72.5934 12.5589C72.2714 12.7957 72.0584 13.094 71.9542 13.4538L69.1559 13.2266C69.298 12.5637 69.5773 11.9908 69.994 11.5078C70.4106 11.0201 70.9481 10.6461 71.6062 10.3857C72.2691 10.1205 73.0361 9.98793 73.9073 9.98793C74.5134 9.98793 75.0934 10.0589 75.6474 10.201C76.2061 10.343 76.7009 10.5632 77.1318 10.8615C77.5674 11.1598 77.9106 11.5433 78.1616 12.0121C78.4125 12.4761 78.538 13.0324 78.538 13.6811V21.0391H75.6687V19.5263H75.5835C75.4083 19.8672 75.1739 20.1679 74.8803 20.4283C74.5868 20.6839 74.234 20.8852 73.8221 21.032C73.4102 21.174 72.9343 21.245 72.3945 21.245ZM73.261 19.157C73.7061 19.157 74.0991 19.0694 74.44 18.8942C74.7809 18.7143 75.0484 18.4728 75.2426 18.1697C75.4367 17.8667 75.5338 17.5234 75.5338 17.1399V15.9822C75.4391 16.0438 75.3088 16.1006 75.1431 16.1527C74.9821 16.2 74.7999 16.245 74.5963 16.2876C74.3927 16.3255 74.1891 16.361 73.9855 16.3942C73.7819 16.4226 73.5972 16.4486 73.4315 16.4723C73.0764 16.5244 72.7662 16.6072 72.5011 16.7209C72.2359 16.8345 72.03 16.9884 71.8832 17.1825C71.7364 17.3719 71.663 17.6087 71.663 17.8928C71.663 18.3047 71.8122 18.6196 72.1105 18.8374C72.4135 19.0504 72.797 19.157 73.261 19.157ZM80.4853 21.0391V10.13H83.3688V12.0547H83.4967C83.724 11.4155 84.1027 10.9112 84.633 10.5419C85.1633 10.1726 85.7978 9.98793 86.5365 9.98793C87.2846 9.98793 87.9214 10.175 88.447 10.549C88.9725 10.9183 89.3229 11.4202 89.4981 12.0547H89.6117C89.8343 11.4297 90.2367 10.9302 90.8191 10.5561C91.4062 10.1773 92.0999 9.98793 92.9001 9.98793C93.9181 9.98793 94.7443 10.3123 95.3788 10.9609C96.018 11.6049 96.3376 12.5187 96.3376 13.7024V21.0391H93.3191V14.299C93.3191 13.6929 93.1581 13.2384 92.8362 12.9354C92.5142 12.6323 92.1117 12.4808 91.6288 12.4808C91.0795 12.4808 90.651 12.656 90.3433 13.0064C90.0355 13.352 89.8816 13.8089 89.8816 14.3771V21.0391H86.9484V14.2351C86.9484 13.7 86.7945 13.2739 86.4867 12.9567C86.1837 12.6394 85.7836 12.4808 85.2865 12.4808C84.9503 12.4808 84.6472 12.5661 84.3774 12.7365C84.1122 12.9022 83.9015 13.1366 83.7453 13.4396C83.589 13.7379 83.5109 14.0883 83.5109 14.4908V21.0391H80.4853ZM98.3275 25.13V10.13H101.31V11.9624H101.445C101.578 11.6688 101.77 11.3705 102.021 11.0675C102.276 10.7597 102.608 10.504 103.015 10.3004C103.427 10.0921 103.938 9.98793 104.549 9.98793C105.345 9.98793 106.078 10.1963 106.751 10.6129C107.423 11.0249 107.961 11.6475 108.363 12.4808C108.765 13.3094 108.967 14.3487 108.967 15.5987C108.967 16.8156 108.77 17.843 108.377 18.6811C107.989 19.5144 107.459 20.1465 106.786 20.5774C106.119 21.0036 105.371 21.2166 104.542 21.2166C103.955 21.2166 103.455 21.1196 103.043 20.9254C102.636 20.7313 102.302 20.4875 102.042 20.1939C101.782 19.8956 101.583 19.5949 101.445 19.2919H101.353V25.13H98.3275ZM101.289 15.5845C101.289 16.2332 101.379 16.799 101.559 17.282C101.739 17.7649 101.999 18.1413 102.34 18.4112C102.681 18.6764 103.095 18.8089 103.583 18.8089C104.076 18.8089 104.492 18.674 104.833 18.4041C105.174 18.1295 105.432 17.7507 105.607 17.2678C105.787 16.7801 105.877 16.219 105.877 15.5845C105.877 14.9548 105.79 14.4008 105.614 13.9226C105.439 13.4444 105.181 13.0703 104.84 12.8004C104.499 12.5305 104.08 12.3956 103.583 12.3956C103.091 12.3956 102.674 12.5258 102.333 12.7862C101.997 13.0466 101.739 13.416 101.559 13.8942C101.379 14.3724 101.289 14.9358 101.289 15.5845ZM113.695 21.245C112.999 21.245 112.378 21.1243 111.834 20.8828C111.289 20.6366 110.858 20.2744 110.541 19.7962C110.229 19.3132 110.072 18.7119 110.072 17.9922C110.072 17.3861 110.184 16.8771 110.406 16.4652C110.629 16.0533 110.932 15.7218 111.315 15.4709C111.699 15.2199 112.134 15.0305 112.622 14.9027C113.115 14.7749 113.631 14.6849 114.17 14.6328C114.805 14.5665 115.316 14.505 115.704 14.4482C116.093 14.3866 116.374 14.2966 116.55 14.1783C116.725 14.0599 116.812 13.8847 116.812 13.6527V13.6101C116.812 13.1603 116.67 12.8123 116.386 12.5661C116.107 12.3198 115.709 12.1967 115.193 12.1967C114.649 12.1967 114.215 12.3175 113.893 12.5589C113.571 12.7957 113.358 13.094 113.254 13.4538L110.456 13.2266C110.598 12.5637 110.877 11.9908 111.294 11.5078C111.711 11.0201 112.248 10.6461 112.906 10.3857C113.569 10.1205 114.336 9.98793 115.207 9.98793C115.813 9.98793 116.393 10.0589 116.947 10.201C117.506 10.343 118.001 10.5632 118.432 10.8615C118.867 11.1598 119.211 11.5433 119.462 12.0121C119.713 12.4761 119.838 13.0324 119.838 13.6811V21.0391H116.969V19.5263H116.883C116.708 19.8672 116.474 20.1679 116.18 20.4283C115.887 20.6839 115.534 20.8852 115.122 21.032C114.71 21.174 114.234 21.245 113.695 21.245ZM114.561 19.157C115.006 19.157 115.399 19.0694 115.74 18.8942C116.081 18.7143 116.348 18.4728 116.543 18.1697C116.737 17.8667 116.834 17.5234 116.834 17.1399V15.9822C116.739 16.0438 116.609 16.1006 116.443 16.1527C116.282 16.2 116.1 16.245 115.896 16.2876C115.693 16.3255 115.489 16.361 115.285 16.3942C115.082 16.4226 114.897 16.4486 114.731 16.4723C114.376 16.5244 114.066 16.6072 113.801 16.7209C113.536 16.8345 113.33 16.9884 113.183 17.1825C113.036 17.3719 112.963 17.6087 112.963 17.8928C112.963 18.3047 113.112 18.6196 113.41 18.8374C113.713 19.0504 114.097 19.157 114.561 19.157ZM130.862 13.2408L128.092 13.4112C128.045 13.1745 127.943 12.9614 127.787 12.772C127.63 12.5779 127.425 12.424 127.169 12.3104C126.918 12.192 126.617 12.1328 126.267 12.1328C125.798 12.1328 125.403 12.2322 125.081 12.4311C124.759 12.6252 124.598 12.8857 124.598 13.2124C124.598 13.4728 124.702 13.6929 124.91 13.8729C125.119 14.0528 125.476 14.1972 125.983 14.3061L127.957 14.7038C129.018 14.9216 129.809 15.272 130.329 15.755C130.85 16.2379 131.111 16.8724 131.111 17.6584C131.111 18.3733 130.9 19.0007 130.478 19.5405C130.062 20.0803 129.489 20.5017 128.76 20.8047C128.035 21.103 127.2 21.2521 126.253 21.2521C124.809 21.2521 123.658 20.9515 122.801 20.3501C121.949 19.7441 121.449 18.9202 121.302 17.8786L124.278 17.7223C124.368 18.1626 124.586 18.4988 124.932 18.7308C125.277 18.9581 125.72 19.0717 126.26 19.0717C126.79 19.0717 127.216 18.9699 127.538 18.7663C127.865 18.558 128.031 18.2905 128.035 17.9638C128.031 17.6892 127.915 17.4643 127.687 17.2891C127.46 17.1091 127.11 16.9718 126.636 16.8771L124.747 16.5007C123.682 16.2876 122.889 15.9183 122.368 15.3928C121.852 14.8672 121.594 14.1972 121.594 13.3828C121.594 12.6821 121.783 12.0784 122.162 11.5717C122.545 11.0651 123.083 10.6745 123.774 10.3999C124.47 10.1252 125.284 9.98793 126.217 9.98793C127.595 9.98793 128.679 10.2791 129.47 10.8615C130.265 11.4439 130.729 12.237 130.862 13.2408ZM141.692 13.2408L138.923 13.4112C138.875 13.1745 138.773 12.9614 138.617 12.772C138.461 12.5779 138.255 12.424 137.999 12.3104C137.748 12.192 137.448 12.1328 137.097 12.1328C136.629 12.1328 136.233 12.2322 135.911 12.4311C135.589 12.6252 135.428 12.8857 135.428 13.2124C135.428 13.4728 135.532 13.6929 135.741 13.8729C135.949 14.0528 136.307 14.1972 136.813 14.3061L138.788 14.7038C139.848 14.9216 140.639 15.272 141.16 15.755C141.681 16.2379 141.941 16.8724 141.941 17.6584C141.941 18.3733 141.73 19.0007 141.309 19.5405C140.892 20.0803 140.319 20.5017 139.59 20.8047C138.866 21.103 138.03 21.2521 137.083 21.2521C135.639 21.2521 134.488 20.9515 133.631 20.3501C132.779 19.7441 132.28 18.9202 132.133 17.8786L135.109 17.7223C135.199 18.1626 135.416 18.4988 135.762 18.7308C136.108 18.9581 136.55 19.0717 137.09 19.0717C137.621 19.0717 138.047 18.9699 138.369 18.7663C138.695 18.558 138.861 18.2905 138.866 17.9638C138.861 17.6892 138.745 17.4643 138.518 17.2891C138.291 17.1091 137.94 16.9718 137.467 16.8771L135.577 16.5007C134.512 16.2876 133.719 15.9183 133.198 15.3928C132.682 14.8672 132.424 14.1972 132.424 13.3828C132.424 12.6821 132.613 12.0784 132.992 11.5717C133.376 11.0651 133.913 10.6745 134.604 10.3999C135.3 10.1252 136.115 9.98793 137.048 9.98793C138.425 9.98793 139.51 10.2791 140.3 10.8615C141.096 11.4439 141.56 12.237 141.692 13.2408Z" fill="#212121" />
  <defs>
    <clipPath id="clip0_3560_163584">
      <path d="M0 12.9081C0 8.69612 0 6.59013 0.819706 4.98137C1.54074 3.56626 2.69126 2.41574 4.10637 1.69471C5.71513 0.875 7.82112 0.875 12.0331 0.875H14.2893C18.5013 0.875 20.6073 0.875 22.2161 1.69471C23.6312 2.41574 24.7817 3.56626 25.5027 4.98137C26.3224 6.59013 26.3224 8.69612 26.3224 12.9081V15.1643C26.3224 19.3763 26.3224 21.4823 25.5027 23.0911C24.7817 24.5062 23.6312 25.6567 22.2161 26.3777C20.6073 27.1974 18.5013 27.1974 14.2893 27.1974H12.0331C7.82112 27.1974 5.71513 27.1974 4.10637 26.3777C2.69126 25.6567 1.54074 24.5062 0.819706 23.0911C0 21.4823 0 19.3763 0 15.1643V12.9081Z" fill="white" />
    </clipPath>
  </defs>
</svg>
