<svg width="52" height="52" viewBox="0 0 52 52" fill="none" xmlns="http://www.w3.org/2000/svg">
<path d="M26.9774 29.8192C26.9774 29.8192 30.6208 29.7046 33.8418 27.6763C37.0629 25.6479 34.7024 33.3487 34.7024 33.3487C34.7024 33.3487 35.176 36.8898 32.8353 37.711C30.4985 38.5323 27.4511 36.523 26.7209 34.7621C25.9906 33.0011 26.038 30.3081 26.038 30.3081L26.9774 29.8154V29.8192Z" fill="#F4B23D"/>
<path d="M31.3078 18.7659C30.0486 18.3534 27.4433 19.3274 27.4433 19.3274C25.7026 20.4084 23.946 23.0059 23.7447 24.5453C23.5473 26.0847 24.1078 27.7196 27.4433 27.6738C30.7749 27.628 33.2301 25.9243 33.4946 24.6752C33.7591 23.4223 32.567 19.1784 31.3078 18.7659ZM29.0894 24.4651C28.0315 24.4651 27.1749 23.2657 27.1749 21.7836C27.1749 20.3015 28.0315 19.1021 29.0894 19.1021C30.1473 19.1021 31.0038 20.3015 31.0038 21.7836C31.0038 23.2657 30.1473 24.4651 29.0894 24.4651Z" fill="#F4B23D"/>
<path d="M35.5633 26.6361C35.5357 26.5674 35.5001 26.5024 35.4686 26.4375C34.3633 27.4498 33.0054 28.2481 31.5647 28.8134C32.9699 28.9395 33.9567 29.1954 34.6041 29.4284C34.6791 30.1695 34.6673 30.9908 34.5804 31.8159C33.3094 31.5179 31.0831 31.1206 28.5371 31.2352C27.6331 31.2773 27.0055 31.3498 26.5594 31.4301C26.6029 30.838 26.7529 30.2994 26.9779 29.8104C26.4292 29.8372 25.8963 29.8257 25.391 29.7799C25.0042 30.9755 24.9489 32.3583 25.391 33.8977C25.8608 35.5402 27.0489 37.1255 28.4423 38.1148C28.7226 38.3211 30.5976 39.8299 26.0858 41.8048C26.0858 41.8048 31.8725 41.7093 34.4265 37.1675C36.108 34.4095 36.6093 29.1916 35.5633 26.6361ZM32.6146 36.8619C31.1344 38.0881 29.0581 37.0109 27.7792 35.3492C30.8739 35.6815 33.9725 34.6005 33.9725 34.6005C33.6291 35.5822 33.1673 36.3997 32.6146 36.8619Z" fill="#212121"/>
<path d="M24.7791 28.4053C25.3988 28.6421 26.1054 28.7529 26.8593 28.7529C29.4804 28.7529 32.6224 27.4159 34.2527 25.3876C34.529 25.0438 34.6869 24.6083 34.7461 24.1309C37.3592 23.9437 41.6302 22.5265 43.821 21.0291C45.8302 19.6578 47.0697 18.0458 47.3144 16.4873C47.4565 15.582 47.2512 14.7493 46.7184 14.0732C45.7828 12.889 44.1486 12.5338 42.2697 12.9654C41.9658 12.232 41.4447 11.6743 40.746 11.3343C38.5553 10.2724 35.7092 11.8424 33.8264 15.1504C33.2619 16.1435 32.7882 17.4385 32.4369 18.7831C31.6988 18.1986 30.858 17.8778 29.9896 17.8778H29.9777C29.8001 17.8778 29.6225 17.893 29.4448 17.9121C31.1067 10.7996 34.1461 13.2481 35.6777 11.1013C37.2763 8.8629 29.9659 8.87818 28.8922 18.0153C28.5251 18.1031 28.1541 18.2292 27.7909 18.3934C27.2896 10.6621 31.004 12.3428 31.908 9.83697C32.8514 7.22419 25.5922 9.21051 27.3291 18.6226C27.1317 18.7296 26.9383 18.848 26.7449 18.9741C26.5357 18.9015 26.3146 18.8556 26.0857 18.8556C24.6409 18.8556 23.508 20.4103 23.508 22.3966C23.508 22.473 23.512 22.5456 23.5159 22.6182C23.1133 23.4242 22.8488 24.2722 22.7659 25.1202C22.616 26.6902 23.3304 27.8552 24.7712 28.4091L24.7791 28.4053ZM45.8657 14.7035C46.221 15.1542 46.3552 15.7043 46.2565 16.3307C46.0592 17.5875 44.946 18.9932 43.2013 20.1811C40.8289 21.8008 36.8145 22.8665 34.7422 23.0919C34.675 22.4807 34.5014 21.8542 34.2645 21.2889C35.2987 19.4745 37.2961 16.8502 39.3882 15.4216C42.0802 13.5804 44.7447 13.2863 45.8657 14.7035ZM34.7658 15.6546C36.3566 12.8585 38.6184 11.4642 40.2645 12.2664C40.7026 12.4803 41.0303 12.8203 41.2395 13.2787C40.4303 13.5766 39.5974 14.0044 38.7684 14.5736C36.9487 15.815 34.9356 18.1833 33.6882 20.185C33.5698 20.0016 33.4435 19.8297 33.3132 19.6655C33.633 18.2521 34.1106 16.8082 34.7658 15.6546ZM28.3554 19.5394C28.3554 19.5394 28.3633 19.5318 28.3712 19.5279C28.4067 19.5012 28.4462 19.4783 28.4856 19.4592C28.4975 19.4515 28.5093 19.4439 28.5212 19.4401C28.5606 19.421 28.6001 19.4019 28.6396 19.3866C28.6514 19.3866 28.6593 19.379 28.6712 19.3751C28.7619 19.3446 28.8567 19.3293 28.9514 19.3293C29.7685 19.3293 30.4554 20.4753 30.4554 21.8313C30.4554 23.1874 29.7685 24.3333 28.9514 24.3333C28.1343 24.3333 27.4475 23.1874 27.4475 21.8313C27.4475 20.8229 27.8304 19.9328 28.3593 19.5394H28.3554ZM24.2936 24.8299C24.4317 23.3593 25.3159 21.8619 26.4804 20.7961C26.4093 21.1208 26.3738 21.4684 26.3738 21.8313C26.3738 23.8176 27.5067 25.3723 28.9514 25.3723C30.3961 25.3723 31.529 23.8176 31.529 21.8313C31.529 20.9718 31.3159 20.1926 30.9567 19.5852C32.8514 20.5517 33.8066 23.6457 32.9145 24.7535C30.5185 27.733 23.9423 28.6077 24.2975 24.8337L24.2936 24.8299Z" fill="#212121"/>
<path d="M41.9147 27.6797C40.3674 27.6797 38.9384 28.1533 37.7819 28.9632C38.0977 32.2291 37.5016 35.7358 36.0095 38.0964C37.249 39.9834 39.4279 41.202 41.9147 41.202C45.7713 41.202 48.9015 38.2683 48.9015 34.4408C48.9015 30.6133 45.7713 27.6797 41.9147 27.6797ZM41.9147 38.3065C39.7279 38.3065 37.999 36.7633 37.999 34.4447C37.999 32.126 39.7279 30.5828 41.9147 30.5828C44.1015 30.5828 45.8305 32.126 45.8305 34.4447C45.8305 36.7633 44.1015 38.3065 41.9147 38.3065Z" fill="#212121"/>
<path d="M24.3054 36.515C23.6264 37.6304 22.3909 38.2989 20.9541 38.2989C18.7673 38.2989 17.0383 36.7557 17.0383 34.437C17.0383 32.1184 18.7673 30.5752 20.9541 30.5752C21.5265 30.5752 22.0633 30.6821 22.5488 30.8807C22.5764 30.4682 22.6514 30.0595 22.7857 29.6355C22.6988 29.5973 22.612 29.5629 22.533 29.5209C21.7001 29.0854 21.1672 28.4551 20.9541 27.6797C18.3173 27.6797 16.0199 29.051 14.8318 31.1405C13.6436 29.051 11.3463 27.6797 8.70947 27.6797C4.84898 27.6721 1.71875 30.6057 1.71875 34.4332C1.71875 38.2607 4.84898 41.1943 8.70552 41.1943C11.3423 41.1943 13.6397 39.823 14.8278 37.7336C16.016 39.823 18.3133 41.1943 20.9501 41.1943C23.1212 41.1943 25.0593 40.2661 26.3382 38.7726C25.5764 38.1308 24.8777 37.3592 24.3014 36.5112L24.3054 36.515ZM8.70552 38.2989C6.5187 38.2989 4.78977 36.7557 4.78977 34.437C4.78977 32.1184 6.5187 30.5752 8.70552 30.5752C10.8923 30.5752 12.6213 32.1184 12.6213 34.437C12.6213 36.7557 10.8923 38.2989 8.70552 38.2989Z" fill="#212121"/>
</svg>
